<svg xmlns="http://www.w3.org/2000/svg" viewBox="0 0 256 256" role="img" aria-label="蝙蝠"><path d="M110 107 48 63 21 146q23-11 37 10 24-11 34 19l31-39m22-29 63-44 27 83q-24-11-38 10-23-11-34 19l-31-39" fill="#8e8ab0" stroke="#686987" stroke-width="4" stroke-linejoin="round"/><path d="m55 84 23 63m125-63-22 63" stroke="#b4adc9" stroke-width="3"/><path d="m103 108-5-48 30 23 31-23-5 49" fill="#827a9e"/><ellipse cx="128" cy="143" rx="34" ry="49" fill="#9286ac"/><circle cx="116" cy="121" r="5" fill="#fff7df"/><circle cx="140" cy="121" r="5" fill="#fff7df"/><path d="m121 137 7 7 7-7" fill="#d0a2aa"/><path d="M116 177v20m24-20v20" stroke="#6b687f" stroke-width="6" stroke-linecap="round"/></svg>
